<svg height="512pt" viewBox="0 0 512 512" width="512pt" xmlns="http://www.w3.org/2000/svg"><path d="m441.378906 194.207031h-26.480468c-4.878907 0-8.828126-3.953125-8.828126-8.828125v-88.277344c0-4.875 3.949219-8.824218 8.828126-8.824218h88.273437c4.875 0 8.828125 3.949218 8.828125 8.824218v88.277344c0 4.875-3.953125 8.828125-8.828125 8.828125zm0 0" fill="#d25627"/><path d="m467.863281 123.585938c0 4.875-3.953125 8.828124-8.828125 8.828124s-8.828125-3.953124-8.828125-8.828124 3.953125-8.828126 8.828125-8.828126 8.828125 3.953126 8.828125 8.828126zm0 0" fill="#2c3e50"/><path d="m302.960938 201.621094c-2.132813 1.980468-3.128907 4.898437-2.644532 7.769531l8.648438 46.609375h-105.929688l8.738282-47.226562c.277343-1.976563-.09375-3.992188-1.058594-5.738282h-.089844c-.363281-.792968-.875-1.511718-1.5-2.121094-9.214844-8.851562-15.839844-20.054687-19.15625-32.394531l-2.382812-9.621093-2.207032-8.828126c26.484375 17.652344 114.757813 17.652344 141.242188 0l-4.589844 18.449219c-3.273438 12.542969-9.859375 23.976563-19.070312 33.101563zm0 0" fill="#fdd7ad"/><path d="m308.964844 256h-105.929688l3.265625-17.65625h99.398438zm0 0" fill="#f09372"/><path d="m344.277344 79.449219-9.710938 38.839843-7.945312 31.78125c-26.484375 17.652344-114.757813 17.652344-141.242188 0l-7.855468-31.515624-9.800782-39.105469zm0 0" fill="#e57e25"/><path d="m361.929688 344.277344v150.15625c.003906 4.660156-1.847657 9.128906-5.140626 12.421875-3.296874 3.296875-7.765624 5.148437-12.425781 5.144531h-176.726562c-4.660157.003906-9.128907-1.847656-12.425781-5.144531-3.292969-3.292969-5.144532-7.761719-5.140626-12.421875v-150.15625zm0 0" fill="#3f5c6c"/><path d="m362.371094 268.976562-.441406.882813v74.417969h-35.308594v-87.394532c12.585937 1.679688 24.730468 5.785157 35.75 12.09375zm0 0" fill="#2c3e50"/><path d="m326.621094 256.882812v87.394532h-141.242188v-86.601563l-.085937-.792969c4.414062-.605468 8.871093-.898437 13.328125-.882812h114.757812c4.429688-.019531 8.855469.277344 13.242188.882812zm0 0" fill="#35495e"/><path d="m185.378906 257.675781v86.601563h-35.308594v-75.566406c10.882813-6.144532 22.835938-10.15625 35.222657-11.828126zm0 0" fill="#2c3e50"/><path d="m344.277344 26.484375v52.964844h-176.554688v-52.964844c0-14.628906 11.859375-26.484375 26.484375-26.484375h123.585938c14.625 0 26.484375 11.855469 26.484375 26.484375zm0 0" fill="#f29c1f"/><path d="m326.621094 26.484375v52.964844h-141.242188v-52.964844c-1.3125-13.121094 8.097656-24.882813 21.1875-26.484375h98.867188c13.089844 1.601562 22.5 13.363281 21.1875 26.484375zm0 0" fill="#f0c419"/><g fill="#fdd7ad"><path d="m177.523438 118.554688c-7.5 6.171874-18.152344 6.71875-26.242188 1.34375-8.089844-5.378907-11.714844-15.410157-8.925781-24.714844 2.785156-9.304688 11.332031-15.691406 21.042969-15.734375h4.324218zm0 0"/><path d="m371.554688 101.515625c0 12.191406-9.882813 22.070313-22.070313 22.070313-5.125.023437-10.09375-1.757813-14.035156-5.03125l-.882813-.265626 9.710938-38.839843h5.207031c12.1875 0 22.070313 9.878906 22.070313 22.066406zm0 0"/><path d="m494.34375 220.691406c4.875 0 8.828125 3.949219 8.828125 8.824219v44.140625h-61.792969v-97.105469c0-9.75 7.90625-17.652343 17.65625-17.652343s17.65625 7.902343 17.65625 17.652343v35.3125c0 4.875 3.949219 8.828125 8.824219 8.828125zm0 0"/></g><path d="m503.171875 273.65625-69.472656 131.441406c-6.148438 11.554688-18.160157 18.78125-31.25 18.804688h-40.519531v-154.042969l.441406-.882813c19.394531 11.070313 34.480468 28.363282 42.816406 49.082032l11.738281-14.390625 24.453125-30.011719zm0 0" fill="#35495e"/><path d="m141.242188 203.035156c0 12.359375-11.035157 23.128906-27.808594 29.484375-10.882813 3.972657-22.398438 5.949219-33.984375 5.824219-12.640625.117188-25.175781-2.253906-36.898438-6.972656-15.097656-6.445313-24.894531-16.773438-24.894531-28.335938zm0 0" fill="#fdd7ad"/><path d="m150.070312 268.710938v146.1875h-44.140624c-16.515626.003906-30.808594-11.496094-34.339844-27.632813l-29.039063-155.894531c11.722657 4.71875 24.257813 7.089844 36.898438 6.972656 11.585937.125 23.101562-1.851562 33.984375-5.824219l5.210937 39.546875 2.824219 20.921875c1.648438-2.101562 3.414062-4.105469 5.296875-6.003906 6.789063-7.242187 14.648437-13.40625 23.304687-18.273437zm0 0" fill="#35495e"/><path d="m187.585938 158.898438h-178.757813c-4.875 0-8.828125-3.953126-8.828125-8.828126v-26.484374c0-4.875 3.953125-8.828126 8.828125-8.828126h136.914063c3.636718 4.824219 9.085937 7.953126 15.082031 8.671876 5.996093.714843 12.027343-1.042969 16.699219-4.875l7.855468 31.515624zm0 0" fill="#e64c3c"/><path d="m210.625 203.035156h-201.796875c-4.875 0-8.828125-3.953125-8.828125-8.828125v-26.484375c0-4.875 3.953125-8.824218 8.828125-8.824218h178.757813l2.382812 9.621093c3.550781 13.105469 10.789062 24.914063 20.851562 34.03125zm0 0" fill="#c03a2b"/><path d="m88.277344 88.277344c-3.574219 0-6.796875-2.152344-8.164063-5.453125-1.367187-3.300781-.609375-7.101563 1.921875-9.625 1.421875-1.425781 1.421875-3.734375 0-5.15625-8.320312-8.332031-8.320312-21.824219 0-30.15625 3.453125-3.445313 9.042969-3.441407 12.492188.011719 3.445312 3.449218 3.441406 9.042968-.011719 12.488281-1.421875 1.425781-1.421875 3.734375 0 5.15625 8.320313 8.332031 8.320313 21.824219 0 30.15625-1.65625 1.652343-3.898437 2.578125-6.238281 2.578125zm0 0" fill="#95a5a5"/><path d="m35.308594 88.277344c-3.570313 0-6.792969-2.152344-8.160156-5.453125-1.367188-3.300781-.609376-7.101563 1.921874-9.625 1.421876-1.425781 1.421876-3.734375 0-5.15625-8.320312-8.332031-8.320312-21.824219 0-30.15625 3.449219-3.445313 9.042969-3.441407 12.488282.011719 3.449218 3.449218 3.445312 9.042968-.007813 12.488281-1.421875 1.425781-1.421875 3.734375 0 5.15625 8.320313 8.332031 8.320313 21.824219 0 30.15625-1.65625 1.652343-3.902343 2.578125-6.242187 2.578125zm0 0" fill="#95a5a5"/><path d="m126.765625 286.984375c-9.40625 11.890625-15.605469 25.992187-18.007813 40.960937-.753906 4.238282-4.4375 7.324219-8.742187 7.328126-.5.011718-1.003906-.019532-1.5-.089844-4.796875-.808594-8.035156-5.351563-7.238281-10.152344 3.019531-18.273438 10.714844-35.453125 22.332031-49.875 1.292969-1.558594 3.0625-2.644531 5.035156-3.089844l2.824219 20.921875c1.648438-2.101562 3.414062-4.105469 5.296875-6.003906zm0 0" fill="#2c3e50"/><path d="m426.460938 330.0625c.410156 2.320312-.125 4.707031-1.484376 6.628906-1.359374 1.921875-3.433593 3.222656-5.753906 3.613282-.496094.074218-1 .105468-1.5.085937-4.28125-.023437-7.925781-3.109375-8.652344-7.324219-.878906-5.101562-2.175781-10.121094-3.882812-15.007812l11.738281-14.390625c1.46875.941406 2.582031 2.335937 3.179688 3.972656 2.941406 7.21875 5.070312 14.738281 6.355469 22.421875zm0 0" fill="#2c3e50"/></svg>