<?xml version="1.0" encoding="utf-8"?>
<!-- Generator: Adobe Illustrator 16.0.0, SVG Export Plug-In . SVG Version: 6.00 Build 0)  -->
<!DOCTYPE svg PUBLIC "-//W3C//DTD SVG 1.1//EN" "http://www.w3.org/Graphics/SVG/1.1/DTD/svg11.dtd">
<svg version="1.1" id="Capa_1" xmlns="http://www.w3.org/2000/svg" xmlns:xlink="http://www.w3.org/1999/xlink" x="0px" y="0px"
	 width="612px" height="612.596px" viewBox="0 89.404 612 612.596" enable-background="new 0 89.404 612 612.596"
	 xml:space="preserve">
<g>
	<g>
		<path fill="#FFB940" d="M178.659,482.153c-5.091,0-10.061,1.065-14.645,3.114c-4.584-2.049-9.554-3.114-14.645-3.114
			c-19.888,0-36.064,16.177-36.064,36.065c0,10.598,4.686,28.377,36.064,28.377c5.588,0,10.416-0.527,14.645-1.613
			c4.229,1.086,9.057,1.613,14.645,1.613c31.379,0,36.065-17.779,36.065-28.377C214.724,498.33,198.547,482.153,178.659,482.153z
			 M178.659,526.312c-4.716,0-8.489-0.497-11.227-1.471c-1.095-0.396-2.262-0.599-3.408-0.599s-2.313,0.203-3.408,0.599
			c-2.738,0.974-6.521,1.471-11.227,1.471c-15.801,0-15.801-4.868-15.801-8.093c0-8.702,7.079-15.781,15.781-15.781
			c3.185,0,6.268,0.953,8.905,2.769c3.458,2.373,8.022,2.373,11.48,0c2.637-1.815,5.72-2.769,8.905-2.769
			c8.702,0,15.781,7.079,15.781,15.781C194.439,521.443,194.439,526.312,178.659,526.312z"/>
	</g>
</g>
<g>
	<g>
		<path fill="#FFB940" d="M602.551,590.438c5.01-7.443,7.707-16.187,7.707-25.354c0-21.115-14.482-38.763-33.995-43.944
			c4.716-13.905,4.31-28.712-1.136-41.714c-5.64-13.448-15.923-23.286-28.966-27.708c-2.322-0.791-4.695-1.39-7.109-1.795
			c-2.576-52.647-28.286-92.708-60.639-92.708c-13.519,0-25.842,7.059-35.842,19.037c-18.336-12.444-39.432-19.077-61.389-19.077
			c-37.313,0-72.373,19.432-93.803,51.968c-0.426,0.648-0.578,1.379-0.832,2.078c-30.263-27.2-70.142-43.904-113.934-43.904
			c-94.219,0-170.871,76.653-170.871,170.871c0,48.793,20.628,83.113,61.216,102.961H11.885c-5.599,0-10.142,4.544-10.142,10.142
			v20.284C1.743,688.349,15.546,702,32.524,702h546.954c16.978,0,30.78-13.651,30.78-30.426V651.29c0-4.857-3.479-8.722-8.032-9.716
			c5.051-7.343,8.032-16.217,8.032-25.78C610.258,606.625,607.561,597.883,602.551,590.438z M437.846,458.614
			c0-47.799,21.379-81.115,40.567-81.115s40.567,33.337,40.548,81.978c0,2.789,1.146,5.456,3.164,7.373
			c2.028,1.917,4.776,2.921,7.535,2.759c3.489-0.203,6.806,0.253,9.97,1.328c7.465,2.536,13.428,8.337,16.774,16.339
			c3.54,8.428,3.763,18.144,0.629,27.353c-0.639,1.896-0.517,3.793-0.07,5.599c-19.868,3.377-35.213,19.584-37.485,39.797h-30.923
			v-25.354l36.512-27.384c4.482-3.356,5.396-9.716,2.028-14.198c-3.357-4.473-9.716-5.406-14.188-2.028l-24.352,18.245v-50.71
			c0-5.598-4.533-10.142-10.142-10.142s-10.142,4.544-10.142,10.142v50.71l-24.341-18.256c-4.473-3.377-10.831-2.444-14.188,2.028
			c-3.367,4.483-2.454,10.842,2.028,14.199l36.511,27.383v25.354h-10.172c-0.102-9.695-4.808-18.823-12.241-24.106l-49.158-39.584
			c1.228-11.207,7.403-20.467,16.693-24.574c3.966-1.744,8.459-2.394,13.378-1.927c2.819,0.284,5.669-1.228,7.778-3.154
			C436.659,464.75,437.846,461.475,437.846,458.614z M420.908,565.084c-16.115-27.921-46.155-45.313-78.498-45.537
			c-2.038-18.682-7.201-36.399-14.787-52.789l105.973,85.304c2.668,1.896,4.25,4.98,4.25,8.246v9.848v40.567v1.562
			c0,3.854-2.231,7.231-5.477,8.945C434.601,602.021,430.827,582.265,420.908,565.084z M363.141,586.727l29.766,51.552
			c-17.586-4.979-32.94-16.49-42.251-32.627c-11.603-20.08-12.515-44.705-2.748-65.598c22.981,1.998,43.844,15.092,55.436,35.172
			c9.32,16.146,11.623,35.203,7.13,52.911l-29.767-51.552c-2.81-4.857-9.026-6.521-13.854-3.712
			C361.994,575.672,360.331,581.879,363.141,586.727z M355.026,641.148h-18.661c1.714-4.848,3.013-9.797,3.885-14.817
			C344.601,631.879,349.591,636.798,355.026,641.148z M381.183,438.311c-13.52,0-25.75,7.494-32.688,19.219l-14.473-11.653
			c10.446-17.434,27.921-27.85,47.16-27.85c14.29,0,27.718,5.791,38.134,16.247c-0.721,5.021-1.278,10.162-1.542,15.467
			c-2.789,0.354-5.466,1.034-8.104,1.866C402.359,443.179,392.045,438.311,381.183,438.311z M391.761,462.326
			c-5.649,5.416-9.949,12.201-12.576,19.898l-14.513-11.673c2.961-7.15,9.341-11.958,16.511-11.958
			C385.047,458.594,388.688,459.902,391.761,462.326z M456.74,620.864h62.758c0.832,7.424,3.245,14.371,7.211,20.284h-89.716
			C446.507,638.056,453.88,630.398,456.74,620.864z M458.129,600.581v-20.284h60.852v20.284H458.129z M304.337,420.288
			c17.647-26.815,46.38-42.83,76.846-42.83c18.022,0,35.335,5.507,50.415,15.852c-2.829,5.659-5.313,11.825-7.342,18.479
			c-12.587-9.138-27.444-14.047-43.073-14.047c-25.183,0-48.813,13.51-62.991,35.386l-14.706-11.846
			C303.77,420.947,304.094,420.663,304.337,420.288z M22.027,538.188c0-83.031,67.555-150.587,150.587-150.587
			c83.032,0,150.587,67.556,150.587,150.587c0,2.069,0.771,3.874,1.826,5.477c-1.086,3.58-1.928,7.191-2.566,10.853
			c-5.964-7.617-13.154-14.047-21.085-19.371c0.324-0.994,0.629-1.998,0.629-3.104c0-71.349-58.042-129.391-129.391-129.391
			c-71.349,0-129.391,58.042-129.391,129.391c0,62.413,43.529,94.056,129.391,94.056c28.113,0,50.973-3.174,69.634-9.645
			c5.659,9.604,13.012,17.9,21.511,24.695h-91.146C69.876,641.148,22.027,608.431,22.027,538.188z M271.873,586.727l29.767,51.552
			c-17.586-4.979-32.941-16.49-42.251-32.627c-11.612-20.08-12.525-44.695-2.758-65.598c22.981,1.998,43.844,15.092,55.436,35.172
			c9.32,16.146,11.623,35.203,7.14,52.921l-29.766-51.562c-2.81-4.857-8.996-6.531-13.854-3.712
			C270.727,575.672,269.074,581.879,271.873,586.727z M234.003,597.589c-16.207,5.355-36.622,8.226-61.399,8.226
			c-97.798,0-109.107-42.109-109.107-73.772c0-60.162,48.945-109.107,109.107-109.107c57.789,0,105.101,45.192,108.752,102.068
			c-9.736-3.509-20.071-5.558-30.72-5.558h-0.01c-3.631,0-6.978,1.968-8.793,5.111C228.962,546.93,226.468,573.522,234.003,597.589z
			 M589.975,671.574c0,5.588-4.717,10.142-10.497,10.142H32.524c-5.791,0-10.497-4.554-10.497-10.142v-10.142h567.948V671.574z
			 M582.317,597.69c4.929,4.827,7.657,11.258,7.657,18.104c0,13.976-11.369,25.354-25.355,25.354
			c-13.985,0-25.354-11.379-25.354-25.354c0-6.846,2.729-13.276,7.657-18.104c1.947-1.906,3.053-4.523,3.053-7.252
			c0-2.728-1.096-5.345-3.053-7.251c-4.929-4.827-7.657-11.258-7.657-18.104c0-13.976,11.369-25.354,25.354-25.354
			c13.986,0,25.355,11.379,25.355,25.354c0,6.846-2.729,13.276-7.657,18.104c-1.947,1.906-3.053,4.523-3.053,7.251
			C579.265,593.167,580.359,595.784,582.317,597.69z"/>
	</g>
</g>
<g>
	<g>
		<path fill="#FFB940" d="M253.171,115.371c-30.071-32.231-80.75-33.985-112.981-3.935c-19.016,17.749-30,41.835-30.892,67.829
			c-0.903,25.994,8.367,50.791,26.186,69.888l51.612,54.158c1.998,2.1,4.666,3.154,7.343,3.154c2.515,0,5.03-0.933,6.998-2.799
			c4.057-3.864,4.209-10.284,0.345-14.341l-51.541-54.076c-14.047-15.061-21.39-34.686-20.68-55.274
			c0.72-20.578,9.402-39.655,24.462-53.701c24.067-22.434,61.886-21.116,84.31,2.931c8.326,8.925,12.677,20.558,12.251,32.748
			c-0.426,12.19-5.568,23.499-14.503,31.825c-13.925,12.992-35.801,12.241-48.803-1.693c-3.823-4.087-10.233-4.321-14.331-0.497
			c-4.097,3.813-4.32,10.233-0.497,14.331c20.608,22.099,55.365,23.306,77.464,2.698c12.9-12.019,20.334-28.337,20.953-45.943
			C271.478,145.057,265.189,128.262,253.171,115.371z"/>
	</g>
</g>
<g>
	<g>
		<path fill="#FFB940" d="M242.178,329.721l-10.142-10.142c-3.965-3.965-10.375-3.965-14.341,0c-3.965,3.966-3.965,10.375,0,14.341
			l10.142,10.142c1.978,1.978,4.574,2.971,7.17,2.971s5.192-0.994,7.17-2.971C246.143,340.096,246.143,333.686,242.178,329.721z"/>
	</g>
</g>
<g>
	<g>
		<path fill="#FFB940" d="M443.891,217.023c-0.781-22.555-10.305-43.448-26.806-58.843c-13.601-12.688-31.46-19.401-49.908-18.671
			c-18.59,0.639-35.801,8.489-48.488,22.089c-10.518,11.268-16.015,25.974-15.477,41.379c0.537,15.406,7.038,29.686,18.326,40.203
			c19.411,18.113,50,17.059,68.134-2.373c3.823-4.098,3.59-10.518-0.497-14.331c-4.107-3.824-10.508-3.59-14.341,0.497
			c-10.487,11.248-28.194,11.876-39.473,1.369c-7.313-6.815-11.531-16.075-11.876-26.075c-0.345-9.99,3.215-19.523,10.04-26.835
			c8.986-9.635,21.187-15.192,34.361-15.649c13.113-0.517,25.729,4.229,35.364,13.235c12.536,11.693,19.767,27.576,20.376,44.715
			c0.598,17.13-5.527,33.479-17.141,45.943l-43.985,46.146c-3.864,4.057-3.712,10.477,0.345,14.341
			c1.958,1.876,4.473,2.799,6.988,2.799c2.678,0,5.345-1.055,7.343-3.144l44.066-46.227
			C436.639,261.09,444.691,239.579,443.891,217.023z"/>
	</g>
</g>
</svg>
