<?xml version="1.0" encoding="utf-8"?>
<!-- Generator: Adobe Illustrator 16.0.0, SVG Export Plug-In . SVG Version: 6.00 Build 0)  -->
<!DOCTYPE svg PUBLIC "-//W3C//DTD SVG 1.1//EN" "http://www.w3.org/Graphics/SVG/1.1/DTD/svg11.dtd">
<svg version="1.1" id="Слой_1" xmlns="http://www.w3.org/2000/svg" xmlns:xlink="http://www.w3.org/1999/xlink" x="0px" y="0px"
	 width="506.093px" height="617.096px" viewBox="0 89.404 506.093 617.096" enable-background="new 0 89.404 506.093 617.096"
	 xml:space="preserve">
<path fill="#FFB940" d="M343.886,628.366c0,6.61-5.361,11.977-11.977,11.977s-11.977-5.366-11.977-11.977
	c0-6.615,5.361-11.981,11.977-11.981S343.886,621.751,343.886,628.366z"/>
<path fill="#FFB940" d="M499.436,414.604c-7.757-15.11-20.042-39.049-45.033-39.887c-3.855-12.936-12.188-24.542-24.225-33.474
	c-13.244-9.829-29.6-15.134-44.912-14.999c-3.34-10.723-9.259-20.575-17.095-28.51c19.396-22.367,19.232-49.179,9.193-67.84
	c-9.928-18.451-31.537-33.305-60-30.61c-0.379-22.882-10.507-42.788-29.436-57.188c-25.455-19.373-62.643-25.221-91.966-15.284
	c-13.146-15.064-29.305-26.451-46.259-32.477c-20.776-7.382-41.955-6.452-59.649,2.629c-0.238,0.122-0.472,0.248-0.706,0.375
	l-0.141,0.07c-0.271,0.135-0.547,0.271-0.8,0.402c-17.675,9.071-30.774,25.735-36.889,46.923
	c-4.992,17.296-5.156,37.066-0.571,56.528c-4.402,3.172-8.613,6.873-12.584,11.074c-4.547,4.809-4.337,12.388,0.468,16.936
	c4.809,4.542,12.388,4.332,16.936-0.473c4.636-4.903,9.614-8.819,14.792-11.64c5.02-2.732,7.411-8.636,5.703-14.096
	c-11.266-35.995-1.553-71.298,23.102-83.953l0.646-0.318c0.108-0.051,0.21-0.103,0.313-0.159l0.692-0.37
	c24.641-12.65,58.984,0.042,81.665,30.171c3.438,4.571,9.628,6.072,14.779,3.583c21.941-10.596,55.312-6.583,75.967,9.137
	c11.293,8.594,23.742,24.402,18.919,50.919c-0.753,4.14,0.721,8.37,3.883,11.148c3.163,2.774,7.546,3.687,11.551,2.405
	c25.244-8.084,41.899,3.364,48.496,15.616c6.395,11.888,6.671,31.564-13.609,47.883c-3.009,2.418-4.664,6.133-4.454,9.983
	c0.206,3.846,2.255,7.359,5.507,9.441c10.83,6.928,18.619,19.293,20.322,32.271c0.436,3.326,2.25,6.316,4.992,8.243
	c2.746,1.928,6.17,2.615,9.45,1.899c11.536-2.536,26.227,1.202,37.422,9.511c5.814,4.313,15.733,13.712,16.865,28.191
	c0.276,3.5,2.067,6.699,4.907,8.758c2.84,2.063,6.442,2.773,9.853,1.945c10.56-2.554,17.483,0.613,30.597,26.166
	c4.337,8.44,5.216,18.873,2.428,28.622c-2.835,9.899-8.978,17.703-17.286,21.97l-0.439,0.22c-5.133,2.521-7.767,8.318-6.288,13.843
	c2.203,8.229-1.698,17.029-9.277,20.917c-8.94,4.59-19.953,1.029-24.552-7.93c-8.36-16.285-19.499-26.012-33.113-28.912
	c-19.972-4.252-40.131,7.055-58.381,20.637c-3.387-5.946-6.798-11.916-10.231-17.904c2.325-8.379,9.24-28.384,26.007-46.624
	c4.478-4.87,4.154-12.449-0.716-16.922c-4.87-4.477-12.444-4.158-16.921,0.711c-11.233,12.22-18.808,25.104-23.837,35.986
	c-11.073-19.13-22.273-38.293-33.417-57.226c3.56-12.547,14.966-39.144,38.531-55.761c5.407-3.809,6.699-11.284,2.891-16.688
	c-3.813-5.408-11.284-6.699-16.692-2.891c-19.588,13.811-32.491,32.729-40.266,49.038c-17.432-29.417-34.531-57.959-50.596-84.589
	c0.107-16.36,1.914-31.387,18.4-37.814c6.166-2.4,9.211-9.343,6.812-15.504c-2.4-6.166-9.342-9.216-15.508-6.812
	c-16.019,6.241-24.402,17.221-28.8,28.575c-11.284-18.582-21.829-35.859-31.359-51.41c-0.084-0.136-0.168-0.276-0.253-0.417
	c-0.407-0.664-0.814-1.329-1.216-1.983c-0.861-1.403-1.712-2.788-2.54-4.14c-0.206-0.337-0.421-0.655-0.655-0.964
	c-2.311-3.064-5.895-4.758-9.576-4.753c-1.38,0-2.774,0.253-4.122,0.749c-0.444,0.164-0.894,0.351-1.329,0.575
	c-3.827,1.965-6.17,5.731-6.475,9.769c-0.136,1.833,0.15,3.729,0.908,5.529c0.524,1.245,1.057,2.513,1.595,3.799
	c0.257,0.608,0.519,1.226,0.776,1.843c0.239,0.571,0.482,1.142,0.725,1.717c6.868,16.299,14.732,34.877,23.373,55.139
	c-11.785-3.036-25.585-2.62-39.985,6.755c-5.544,3.607-7.111,11.027-3.504,16.571s11.027,7.116,16.571,3.504
	c14.821-9.642,28.079-2.372,41.422,7.074c12.159,28.304,25.403,58.881,39.256,90.437c-8.094-1.455-17.249-2.353-26.957-2.161
	c-16.889-26.325-43.434-26.315-55.948-22.185c-6.283,2.072-9.693,8.851-7.621,15.129c2.077,6.283,8.847,9.698,15.129,7.621
	c0.562-0.187,10.185-3.195,19.79,3.378c-2.564,0.683-5.132,1.455-7.701,2.349c-6.25,2.171-9.553,9.001-7.382,15.247
	c2.171,6.25,8.996,9.553,15.247,7.382c27.237-9.464,55.494-3.228,67.766,1.192c8.861,20.033,17.899,40.295,27.003,60.473
	c-20.51-3.939-50.475-5.108-81.796,9.44c-5.998,2.789-8.604,9.909-5.815,15.911c2.03,4.365,6.354,6.934,10.873,6.934
	c1.689,0,3.406-0.36,5.039-1.118c37.16-17.263,72.963-7.055,84.533-2.872c2.854,6.264,5.712,12.505,8.566,18.713
	c-21.684,6.914-42.634,16.711-50.821,35.42c-5.581,12.753-4.173,27.471,4.188,43.751c4.599,8.964,1.071,19.986-7.864,24.575
	c-7.584,3.888-17.001,1.933-22.405-4.654c-3.621-4.417-9.857-5.661-14.896-2.971l-0.44,0.233
	c-8.323,4.271-18.246,4.711-27.939,1.245c-9.548-3.416-17.511-10.213-21.843-18.653c-13.118-25.553-11.654-33.028-3.424-40.116
	c2.662-2.288,4.182-5.628,4.164-9.142c-0.019-3.509-1.577-6.83-4.257-9.095c-11.106-9.361-12.959-22.896-13.076-30.133
	c-0.225-13.941,5.305-28.052,14.086-35.953c2.493-2.241,3.93-5.427,3.962-8.781s-1.338-6.568-3.785-8.86
	c-9.553-8.95-15.06-22.489-14.376-35.331c0.206-3.851-1.455-7.561-4.463-9.975c-3.003-2.418-6.989-3.236-10.704-2.203
	c-25.08,6.966-40.907-4.721-46.839-16.852c-6.114-12.5-5.698-32.706,15.579-48.504c3.377-2.508,5.193-6.601,4.781-10.789
	c-0.412-4.187-2.99-7.85-6.793-9.651c-17.567-8.323-27.625-21.543-29.904-39.293c-0.837-6.564-6.849-11.205-13.403-10.358
	c-6.559,0.842-11.195,6.844-10.358,13.403c2.573,20.084,12.599,37.057,28.702,49.09c-18.812,21.543-19.331,47.793-10.124,66.624
	c9.305,19.036,30.994,34.788,60.486,32.075c1.876,10.994,6.428,21.539,13.198,30.512c-9.057,12.337-14.264,28.744-13.998,45.23
	c0.243,14.989,4.814,28.523,13.076,39.194c-13.885,20.8-1.6,44.734,6.162,59.846c7.078,13.796,19.864,24.828,35.083,30.269
	c13.31,4.763,27.083,4.95,39.551,0.664c7.48,5.783,16.692,8.843,26.007,8.843c6.512,0,13.076-1.493,19.129-4.604
	c20.688-10.615,28.87-36.107,18.236-56.823c-4.978-9.703-6.143-17.291-3.551-23.209c4.921-11.256,24.351-18.634,38.999-23.106
	c8.72,18.77,17.366,37.127,25.834,54.783c2.863,5.96,10.016,8.478,15.98,5.618c5.965-2.862,8.482-10.016,5.619-15.98
	c-9.815-20.463-19.874-41.876-30.002-63.78c0-0.009-0.005-0.014-0.01-0.023c-5.342-11.564-10.713-23.274-16.075-35.059
	c-0.136-0.328-0.281-0.65-0.439-0.964c-13.254-29.127-26.479-58.694-39.279-87.672c-0.122-0.3-0.248-0.599-0.393-0.894
	c-7.79-17.633-15.424-35.041-22.807-51.981c57.51,96.491,124.434,211.825,167.998,296.695c3.49,6.802,5.053,14.264,4.281,20.473
	c-0.566,4.542-2.302,7.873-4.772,9.141c-2.465,1.269-6.185,0.739-10.203-1.454c-5.497-2.994-10.652-8.608-14.143-15.411
	c-3.022-5.881-10.241-8.205-16.126-5.184c-5.886,3.022-8.206,10.241-5.184,16.127c5.712,11.134,14.236,20.191,23.99,25.506
	c6.143,3.345,12.524,5.034,18.634,5.034c4.927,0,9.675-1.1,13.975-3.304c9.633-4.944,16.046-14.971,17.6-27.504
	c1.371-11.026-1.024-23.232-6.737-34.362c-18.723-36.467-41.449-78.086-65.95-121.528c12.173-9.291,29.483-20.758,41.487-18.203
	c6.316,1.342,11.809,6.713,16.791,16.416c10.629,20.711,36.116,28.921,56.8,18.302c14.713-7.551,23.438-23.088,22.867-39.144
	c10.756-7.636,18.625-18.938,22.517-32.52C508.029,445.219,506.519,428.4,499.436,414.604z"/>
<path fill="#FFB940" d="M22.424,270.109c0.978,0.243,1.956,0.36,2.915,0.36c5.217,0,9.97-3.429,11.485-8.613
	c1.881-6.307-1.688-12.955-7.99-14.873c-6.33-1.932-13.02,1.642-14.947,7.967c-0.061,0.196-0.126,0.435-0.173,0.631
	C12.108,262.002,16.01,268.505,22.424,270.109z"/>
<path fill="#FFB940" d="M361.902,413.051c1.997,0,4.023-0.5,5.885-1.549c0.033-0.018,0.127-0.07,0.159-0.088
	c5.713-3.289,7.663-10.56,4.402-16.291s-10.568-7.729-16.313-4.496c-0.032,0.019-0.126,0.07-0.159,0.089
	c-5.712,3.289-7.663,10.559-4.401,16.289C353.678,410.881,357.733,413.051,361.902,413.051z"/>
</svg>
