<?xml version="1.0" encoding="utf-8"?>
<!-- Generator: Adobe Illustrator 16.0.0, SVG Export Plug-In . SVG Version: 6.00 Build 0)  -->
<!DOCTYPE svg PUBLIC "-//W3C//DTD SVG 1.1//EN" "http://www.w3.org/Graphics/SVG/1.1/DTD/svg11.dtd">
<svg version="1.1" id="Слой_1" xmlns="http://www.w3.org/2000/svg" xmlns:xlink="http://www.w3.org/1999/xlink" x="0px" y="0px"
	 width="480px" height="480px" viewBox="0 0 480 480" enable-background="new 0 0 480 480" xml:space="preserve">
<path fill="#FFB940" d="M96,168h16v24H96V168z"/>
<path fill="#FFB940" d="M96,240h16v40H96V240z"/>
<path fill="#FFB940" d="M176,368h104v16H176V368z"/>
<path fill="#FFB940" d="M453.336,208H338.664c-14.719,0.02-26.645,11.945-26.664,26.664v34.672c0.016,10.59,6.297,20.164,16,24.398
	V304H200v-16h-16v16h-8v-41.375c0.008-2.121,0.852-4.152,2.344-5.656c3.16-3.035,8.152-3.035,11.313,0l4.688,4.688l11.313-11.313
	l-4.68-4.688c-9.5-9.066-24.445-9.066-33.945,0c-4.516,4.488-7.051,10.598-7.031,16.969V304h-16V104H0v376h480V304h-16v-10.266
	c9.703-4.234,15.984-13.809,16-24.398v-34.672C479.98,219.945,468.055,208.02,453.336,208z M328,234.664
	c0.008-5.887,4.777-10.656,10.664-10.664H416v56h-77.336c-5.887-0.008-10.656-4.777-10.664-10.664V234.664z M312,320v16H144v-16H312
	z M128,120v88H16v-88H128z M128,464H16V224h112V464z M176,464v-16h104v16H176z M280,432H176v-16h104V432z M160,400v64h-16V352h168
	v112h-16v-64H160z M368,464V352h56v112H368z M464,464h-24V336h-88v128h-24V320h136V464z M344,304v-8h104v8H344z M464,269.336
	c-0.008,5.887-4.777,10.656-10.664,10.664H432v-56h21.336c5.887,0.008,10.656,4.777,10.664,10.664V269.336z"/>
<path fill="#FFB940" d="M392,240h16v24h-16V240z"/>
<path fill="#FFB940" d="M168,144h160v-16h-12.449c2.879-4.844,4.418-10.367,4.449-16c0-17.672-14.328-32-32-32
	c-7.297,0.027-14.359,2.57-20,7.199c-11.605-9.602-28.395-9.602-40,0c-11.938-9.777-29.168-9.582-40.879,0.465
	c-11.711,10.051-14.523,27.051-6.672,40.336H168V144z M288,96c8.836,0,16,7.164,16,16s-7.164,16-16,16s-16-7.164-16-16
	S279.164,96,288,96z M248,96c3.828,0.023,7.52,1.426,10.398,3.953c-3.188,7.715-3.188,16.379,0,24.094
	c-5.363,4.688-13.18,5.266-19.176,1.414c-5.992-3.852-8.719-11.203-6.684-18.031S240.875,95.941,248,96z M192,112
	c-0.039-6.266,3.602-11.969,9.301-14.566c5.699-2.602,12.395-1.617,17.098,2.52c-3.188,7.715-3.188,16.379,0,24.094
	c-4.703,4.137-11.398,5.121-17.098,2.52C195.602,123.969,191.961,118.266,192,112z"/>
<path fill="#FFB940" d="M384,368h24v16h-24V368z"/>
<path fill="#FFB940" d="M344,18v44c0.039,36.434,29.566,65.961,66,66h70V0H362C352.063,0.012,344.012,8.063,344,18z M464,112h-54
	c-27.602-0.031-49.969-22.398-50-50V18c0-1.105,0.895-2,2-2h102V112z"/>
<path fill="#FFB940" d="M376,32h16v40h-16V32z"/>
</svg>
