<?xml version="1.0" encoding="utf-8"?>
<!-- Generator: Adobe Illustrator 16.0.0, SVG Export Plug-In . SVG Version: 6.00 Build 0)  -->
<!DOCTYPE svg PUBLIC "-//W3C//DTD SVG 1.1//EN" "http://www.w3.org/Graphics/SVG/1.1/DTD/svg11.dtd">
<svg version="1.1" id="Layer_1" xmlns="http://www.w3.org/2000/svg" xmlns:xlink="http://www.w3.org/1999/xlink" x="0px" y="0px"
	 width="612px" height="497.687px" viewBox="0 147.157 612 497.687" enable-background="new 0 147.157 612 497.687"
	 xml:space="preserve">
<g>
	<g>
		<circle fill="#FFB940" cx="131.726" cy="561.683" r="20.682"/>
	</g>
</g>
<g>
	<g>
		<path fill="#FFB940" d="M599.59,450.114c0-10.163-3.148-19.603-8.512-27.407c12.63-8.768,20.922-23.364,20.922-39.868
			c0-26.749-21.762-48.512-48.51-48.512H435.957l8.078-18.111c11.81-26.483,17.829-54.616,17.892-83.613
			c0,0,0.072-35.39,0.072-35.588c0-27.491-22.365-49.857-49.857-49.857c-20.435,0-38.587,12.241-46.244,31.188
			c-0.337,0.835-11.939,35.018-11.939,35.018c-10.463,30.396-29.026,57.362-53.68,77.988l-59.158,49.49h-34.2v-15.612
			c0-16.401-13.343-29.745-29.745-29.745H29.745C13.343,295.483,0,308.827,0,325.229v289.87c0,16.4,13.343,29.745,29.745,29.745
			h147.427c16.401,0,29.746-13.343,29.746-29.745v-23.285h18.672l18.538,8.962c43.854,21.197,92.777,32.402,141.485,32.402h67.798
			h20.681h52.169c26.748,0,48.512-21.762,48.512-48.51c0-10.163-3.148-19.603-8.513-27.407c12.63-8.768,20.922-23.364,20.922-39.868
			c0-10.163-3.148-19.603-8.512-27.407C591.3,481.218,599.59,466.619,599.59,450.114z M177.172,615.099H29.745V325.228h147.427
			l0.019,289.87C177.191,615.098,177.186,615.099,177.172,615.099z M563.491,401.606h-21.165c-8.214,0-14.871,6.658-14.871,14.872
			s6.657,14.872,14.871,14.872h8.755c10.348,0,18.767,8.418,18.767,18.767s-8.418,18.767-18.767,18.767h-21.162
			c-8.214,0-14.872,6.657-14.872,14.872c0,8.214,6.658,14.872,14.872,14.872h8.755c10.347,0,18.767,8.417,18.767,18.766
			c0,10.347-8.418,18.766-18.767,18.766h-21.162c-8.214,0-14.872,6.658-14.872,14.872s6.658,14.872,14.872,14.872h8.755
			c10.348,0,18.767,8.42,18.767,18.767c-0.003,10.344-8.422,18.761-18.77,18.761h-52.168h-20.681h-67.799
			c-44.251,0-88.699-10.179-128.54-29.437l-21.605-10.443c-2.018-0.976-4.231-1.483-6.473-1.483H206.92V370.583h39.601
			c3.489,0,6.867-1.227,9.542-3.465l63.3-52.955c28.807-24.097,50.494-55.607,62.719-91.121c0,0,11.834-34.453,11.903-34.687
			c3.335-6.995,10.327-11.453,18.157-11.453c11.091,0,20.112,9.022,20.112,20.112c0,0.197-0.072,35.526-0.072,35.526
			c-0.053,24.819-5.205,48.895-15.313,71.562l-17.323,38.85c-1.519,3.406-1.643,7.074-0.634,10.381
			c0.085,0.293,3.297,10.741,14.279,10.741h150.302c10.347,0,18.766,8.417,18.766,18.766
			C582.255,393.188,573.838,401.606,563.491,401.606z"/>
	</g>
</g>
</svg>
