<svg height="512pt" viewBox="-9 0 512 512" width="512pt" xmlns="http://www.w3.org/2000/svg"><path d="m282.21875 194.207031h100.191406c24.289063 0 45.46875 16.519531 51.378906 40.078125l25.246094 101.164063h-423.722656l25.246094-101.164063c5.910156-23.558594 27.085937-40.078125 51.375-40.078125zm0 0" fill="#f18d46"/><path d="m279.296875 194.207031h91.808594c23.128906.722657 42.679687 17.359375 47.09375 40.078125l23.179687 101.164063h-388.414062l23.148437-101.164063c4.410157-22.71875 23.960938-39.355468 47.09375-40.078125zm0 0" fill="#fac176"/><path d="m459.035156 370.757812h-423.722656l25.28125 101.121094c5.894531 23.578125 27.078125 40.121094 51.386719 40.121094h270.386719c24.304687 0 45.492187-16.542969 51.386718-40.121094zm0 0" fill="#f18d46"/><path d="m441.378906 370.757812h-388.414062l23.171875 88.480469c5.929687 21.027344 25.261719 35.433594 47.105469 35.105469h247.863281c21.84375.328125 41.171875-14.078125 47.101562-35.105469zm0 0" fill="#fac176"/><path d="m494.34375 353.101562c-.070312 9.722657-7.933594 17.585938-17.652344 17.65625h-459.035156c-9.738281-.027343-17.625-7.914062-17.65625-17.65625-.015625-1.765624.253906-3.523437.796875-5.207031.851563-2.738281 2.367187-5.222656 4.410156-7.238281 3.273438-3.351562 7.765625-5.234375 12.449219-5.207031h459.035156c7.738282.003906 14.574219 5.050781 16.859375 12.445312.542969 1.683594.808594 3.441407.792969 5.207031zm0 0" fill="#f9eab0"/><path d="m493.550781 347.894531c-1.421875 3.164063-4.566406 5.203125-8.03125 5.207031h-476.691406c-3.46875-.003906-6.609375-2.042968-8.03125-5.207031.851563-2.738281 2.367187-5.222656 4.410156-7.238281 3.273438-3.351562 7.765625-5.234375 12.449219-5.207031h459.035156c7.738282.003906 14.574219 5.050781 16.859375 12.445312zm0 0" fill="#f5efca"/><path d="m267.679688 450.207031h-41.011719c-3.609375-.003906-6.855469-2.203125-8.195313-5.550781l-10.589844-26.484375c-1.085937-2.71875-.753906-5.800781.886719-8.222656 1.640625-2.425781 4.375-3.878907 7.304688-3.878907h62.199219c2.925781 0 5.664062 1.453126 7.304687 3.878907 1.640625 2.421875 1.972656 5.503906.886719 8.222656l-10.59375 26.484375c-1.339844 3.347656-4.582032 5.546875-8.191406 5.550781zm0 0" fill="#f18d46"/><path d="m97.105469 308.964844h-17.65625c-4.875 0-8.828125-3.953125-8.828125-8.828125s3.953125-8.828125 8.828125-8.828125h17.65625c4.875 0 8.828125 3.953125 8.828125 8.828125s-3.953125 8.828125-8.828125 8.828125zm0 0" fill="#f9eab0"/><path d="m414.898438 308.964844h-282.484376c-4.875 0-8.828124-3.953125-8.828124-8.828125s3.953124-8.828125 8.828124-8.828125h282.484376c4.875 0 8.828124 3.953125 8.828124 8.828125s-3.953124 8.828125-8.828124 8.828125zm0 0" fill="#f9eab0"/><path d="m335.449219 88.277344c0 36.605468-49.769531 102.839844-74.566407 133.578125-3.351562 4.128906-8.390624 6.53125-13.710937 6.53125s-10.355469-2.402344-13.707031-6.53125c-24.796875-30.738281-74.566406-96.972657-74.566406-133.578125 0-48.753906 39.519531-88.277344 88.273437-88.277344s88.277344 39.523438 88.277344 88.277344zm0 0" fill="#e64c3c"/><path d="m247.171875 210.75c-43.554687-53.988281-70.621094-100.925781-70.621094-122.472656 0-39.003906 31.621094-70.621094 70.621094-70.621094 39.003906 0 70.621094 31.617188 70.621094 70.621094 0 21.546875-27.066407 68.472656-70.621094 122.472656zm0 0" fill="#fb7b76"/><path d="m300.136719 88.277344c0 29.25-23.710938 52.964844-52.964844 52.964844-29.25 0-52.964844-23.714844-52.964844-52.964844 0-29.253906 23.714844-52.96875 52.964844-52.96875 29.253906 0 52.964844 23.714844 52.964844 52.96875zm0 0" fill="#35495e"/><path d="m291.3125 238.34375h-88.277344c-4.875 0-8.828125-3.949219-8.828125-8.828125 0-4.875 3.953125-8.824219 8.828125-8.824219h88.277344c4.875 0 8.824219 3.949219 8.824219 8.824219 0 4.878906-3.949219 8.828125-8.824219 8.828125zm0 0" fill="#f18d46"/></svg>